<?xml version="1.0" encoding="UTF-8"?>
<svg width="245px" height="263px" viewBox="0 0 245 263" version="1.1" xmlns="http://www.w3.org/2000/svg" xmlns:xlink="http://www.w3.org/1999/xlink">
    <!-- Generator: Sketch 63.1 (92452) - https://sketch.com -->
    <title>health</title>
    <desc>Created with Sketch.</desc>
    <g id="Logos" stroke="none" stroke-width="1" fill="none" fill-rule="evenodd">
        <g id="health" fill="#666666" fill-rule="nonzero">
            <path d="M190,116 L190,140 L227,140 L227,116 L190,116 Z M217.75,132 L199.25,132 L199.25,124 L217.75,124 L217.75,132 Z" id="Shape"></path>
            <path d="M190,147 L190,171 L227,171 L227,147 L190,147 Z M217.75,163 L199.25,163 L199.25,155 L217.75,155 L217.75,163 Z" id="Shape"></path>
            <path d="M190,184 L190,208 L227,208 L227,184 L190,184 Z M217.75,200 L199.25,200 L199.25,192 L217.75,192 L217.75,200 Z" id="Shape"></path>
            <path d="M190,220 L190,244 L227,244 L227,220 L190,220 Z M217.75,236 L199.25,236 L199.25,228 L217.75,228 L217.75,236 Z" id="Shape"></path>
            <path d="M140.2,43.8 L140.2,18 L105.8,18 L105.8,43.8 L80,43.8 L80,78.2 L105.8,78.2 L105.8,104 L140.2,104 L140.2,78.2 L166,78.2 L166,43.8 L140.2,43.8 Z M157.4,69.6 L131.6,69.6 L131.6,95.4 L114.4,95.4 L114.4,69.6 L88.6,69.6 L88.6,52.4 L114.4,52.4 L114.4,26.6 L131.6,26.6 L131.6,52.4 L157.4,52.4 L157.4,69.6 Z" id="Shape"></path>
            <path d="M183.75,96.4333333 L183.75,0 L61.25,0 L61.25,96.4333333 L0,96.4333333 L0,263 L245,263 L245,96.4333333 L183.75,96.4333333 Z M61.25,254.233333 L8.75,254.233333 L8.75,105.2 L61.25,105.2 L61.25,254.233333 Z M118.125,254.233333 L96.25,254.233333 L96.25,175.333333 L118.125,175.333333 L118.125,254.233333 Z M148.75,254.233333 L126.875,254.233333 L126.875,175.333333 L148.75,175.333333 L148.75,254.233333 Z M175,254.233333 L157.5,254.233333 L157.5,166.566667 L87.5,166.566667 L87.5,254.233333 L70,254.233333 L70,8.76666667 L175,8.76666667 L175,254.233333 Z M236.25,254.233333 L183.75,254.233333 L183.75,105.2 L236.25,105.2 L236.25,254.233333 Z" id="Shape"></path>
            <path d="M18,116 L18,140 L55,140 L55,116 L18,116 Z M45.75,132 L27.25,132 L27.25,124 L45.75,124 L45.75,132 Z" id="Shape"></path>
            <path d="M18,147 L18,171 L55,171 L55,147 L18,147 Z M45.75,163 L27.25,163 L27.25,155 L45.75,155 L45.75,163 Z" id="Shape"></path>
            <path d="M18,184 L18,208 L55,208 L55,184 L18,184 Z M45.75,200 L27.25,200 L27.25,192 L45.75,192 L45.75,200 Z" id="Shape"></path>
            <path d="M18,220 L18,244 L55,244 L55,220 L18,220 Z M45.75,236 L27.25,236 L27.25,228 L45.75,228 L45.75,236 Z" id="Shape"></path>
        </g>
    </g>
</svg>